<svg xmlns="http://www.w3.org/2000/svg" xmlns:xlink="http://www.w3.org/1999/xlink" width="40" height="40"><defs><clipPath id="b"><path d="M0 0h40v40H0z"/></clipPath><filter id="a" filterUnits="objectBoundingBox" x="0%" y="0%" width="100%" height="100%"><feColorMatrix in="SourceGraphic" values="0 0 0 0 1 0 0 0 0 1 0 0 0 0 1 0 0 0 1 0"/></filter><mask id="d"><g filter="url(#a)"><path style="fill:#000;fill-opacity:.447059;stroke:none" d="M0 0h40v40H0z"/></g></mask><g id="c" clip-path="url(#b)"><path style="stroke:none;fill-rule:nonzero;fill:#fffffd;fill-opacity:1" d="M0 0a.008.008 0 0 0-.008.008v39.988c.004 0 .004.004.008.004h39.988c.004 0 .004-.004.008-.004V.008c0-.004-.004-.004-.004-.008h-.004zm.008.016H39.98v39.972H.008zm0 0"/></g></defs><use xlink:href="#c" mask="url(#d)"/><path style="stroke:none;fill-rule:nonzero;fill:#fffffd;fill-opacity:1" d="M19.754 1.793c-.281.023-.55.14-.754.34 0 0-1.074 1.039-2.547 1.91-1.273.746-2.957 1.43-4.121 1.906-2.328.953-7.629 2.172-7.629 2.172a1.192 1.192 0 0 0-.926 1.024S2.352 21.113 9.613 30.816c1.117 1.497 2.586 2.922 4.149 4.082 2.742 2.036 5.582 3.211 5.582 3.211.27.114.574.121.855.028 0 0 2.14-.719 4.512-2.211 1.996-1.258 4.031-2.996 5.434-4.934C37.469 20.895 36.23 9.195 36.23 9.195a1.188 1.188 0 0 0-.917-1.035s-5.743-1.375-8.075-2.324c-1.043-.426-2.605-1.215-3.758-1.922-1.41-.867-2.093-1.297-2.925-1.894a1.219 1.219 0 0 0-.801-.227zm.203 2.676c.645.437 1.207.82 2.254 1.465a31.008 31.008 0 0 0 4.11 2.097c2.421.985 6.327 1.93 7.546 2.215.113 2 .313 11.102-5.68 19.363-1.148 1.586-3.007 3.203-4.769 4.313-1.738 1.094-3.05 1.605-3.563 1.793A24.8 24.8 0 0 1 15.207 33c-1.375-1.023-2.71-2.324-3.66-3.594-5.895-7.879-5.559-17.183-5.418-19.183 1.187-.274 4.738-1.102 7.129-2.082 1.14-.47 2.914-1.168 4.43-2.059a16.632 16.632 0 0 0 2.269-1.613zm0 0"/><path style="stroke:none;fill-rule:nonzero;fill:#fffffd;fill-opacity:1" d="M19.75 1.703a1.293 1.293 0 0 0-.813.367c-.003 0-1.07 1.032-2.53 1.895-1.262.742-2.946 1.422-4.11 1.902-2.309.946-7.613 2.164-7.613 2.164a1.288 1.288 0 0 0-1 1.102c0 .004-1.43 12.004 5.855 21.738 1.121 1.5 2.602 2.934 4.168 4.098 2.75 2.043 5.598 3.218 5.598 3.222.293.121.62.133.922.032 0 0 2.152-.723 4.535-2.223 2.004-1.266 4.043-3.008 5.457-4.957 7.343-10.125 6.101-21.86 6.101-21.86a1.28 1.28 0 0 0-.988-1.113s-5.75-1.379-8.059-2.32c-1.035-.422-2.597-1.21-3.746-1.914-1.41-.867-2.09-1.297-2.922-1.895a1.305 1.305 0 0 0-.855-.238zm.012.18c.261-.02.523.054.738.207.836.601 1.52 1.035 2.934 1.902 1.156.707 2.718 1.496 3.77 1.926 2.35.957 8.085 2.328 8.085 2.328h.004c.46.11.8.492.848.957 0 0 1.23 11.672-6.07 21.738-1.395 1.922-3.419 3.657-5.407 4.907-2.363 1.488-4.496 2.207-4.496 2.207-.258.086-.54.074-.79-.032h-.003s-2.828-1.171-5.559-3.195c-1.554-1.156-3.02-2.578-4.132-4.062-7.235-9.672-5.817-21.61-5.817-21.61a1.1 1.1 0 0 1 .856-.949h.004s5.293-1.215 7.64-2.176c1.164-.476 2.852-1.16 4.133-1.914 1.484-.875 2.563-1.922 2.563-1.922a1.12 1.12 0 0 1 .699-.312zm.246 2.512a.094.094 0 0 0-.11.003 16.61 16.61 0 0 1-2.257 1.606c-1.508.887-3.274 1.586-4.422 2.055-2.375.976-5.926 1.804-7.11 2.074a.092.092 0 0 0-.07.082c-.144 2.012-.48 11.34 5.434 19.246.957 1.273 2.297 2.582 3.68 3.61a25.073 25.073 0 0 0 4.663 2.726.109.109 0 0 0 .07.004c.512-.192 1.837-.707 3.579-1.805 1.773-1.117 3.637-2.734 4.797-4.332 6.011-8.293 5.812-17.414 5.695-19.422a.092.092 0 0 0-.07-.082c-1.215-.289-5.121-1.234-7.532-2.215-1.21-.492-2.812-1.3-4.097-2.09-1.043-.64-1.606-1.023-2.25-1.46zm-.047.183c.625.426 1.18.805 2.2 1.43 1.3.797 2.901 1.605 4.124 2.105 2.41.98 6.235 1.907 7.492 2.203.114 2.082.266 11.067-5.664 19.243-1.14 1.574-2.992 3.183-4.746 4.289-1.707 1.074-2.988 1.574-3.512 1.77a24.617 24.617 0 0 1-4.593-2.692c-1.371-1.016-2.7-2.313-3.64-3.574-5.84-7.801-5.544-16.993-5.403-19.059 1.226-.281 4.695-1.094 7.07-2.066 1.145-.47 2.922-1.172 4.445-2.07a16.148 16.148 0 0 0 2.227-1.579zm0 0"/><path style="stroke:none;fill-rule:nonzero;fill:#fffffd;fill-opacity:1" d="M15.035 12.305v-.313c0-.18.031-.34.102-.472a.831.831 0 0 1 .261-.313c.11-.078.227-.14.356-.195.133-.055.262-.102.39-.133.133-.035.25-.07.36-.102a.873.873 0 0 0 .262-.14.253.253 0 0 0 .101-.203c0-.16-.039-.27-.113-.329-.078-.058-.203-.09-.383-.09h-.14c-.25 0-.415.09-.497.266-.058.133-.144.203-.261.203h-.235c-.023 0-.047-.007-.074-.015a.202.202 0 0 1-.082-.074.238.238 0 0 1-.043-.149.66.66 0 0 1 .168-.445c.117-.13.258-.227.426-.293.172-.067.347-.102.531-.102h.262c.176 0 .328.02.46.051.137.031.259.086.372.16.11.074.195.18.254.317.062.136.09.304.09.5a.888.888 0 0 1-.102.441.844.844 0 0 1-.262.309 1.924 1.924 0 0 1-.355.191 3.332 3.332 0 0 1-.39.137c-.134.035-.25.066-.356.101a.838.838 0 0 0-.266.121c-.066.047-.101.102-.101.164h1.62c.055 0 .098.024.133.063.04.039.055.086.055.144v.2c0 .058-.02.105-.055.144a.181.181 0 0 1-.132.059h-2.168a.181.181 0 0 1-.133-.059.207.207 0 0 1-.055-.144zm0 0"/><path style="stroke:none;fill-rule:nonzero;fill:#fffffd;fill-opacity:1" d="M16.16 9.355c-.191 0-.37.032-.547.102a1.117 1.117 0 0 0-.445.309.71.71 0 0 0-.184.48c0 .066.016.129.055.18a.218.218 0 0 0 .106.094c.03.011.058.02.09.02h.234c.133 0 .242-.087.308-.235.07-.157.207-.235.45-.235h.14c.172 0 .293.032.352.078v.004c.058.043.093.13.093.282a.193.193 0 0 1-.082.16.806.806 0 0 1-.246.129c-.105.035-.226.07-.355.101a2.672 2.672 0 0 0-.399.137 1.804 1.804 0 0 0-.363.2.944.944 0 0 0-.281.331c-.07.145-.106.313-.106.5v.317a.27.27 0 0 0 .07.183c.048.047.106.07.169.07h2.168a.219.219 0 0 0 .164-.07.274.274 0 0 0 .074-.183v-.204a.282.282 0 0 0-.07-.183.22.22 0 0 0-.168-.078h-1.535c.011-.02.007-.043.043-.063a.785.785 0 0 1 .25-.117c.105-.031.222-.066.351-.098a2.97 2.97 0 0 0 .395-.14 1.92 1.92 0 0 0 .367-.196.936.936 0 0 0 .277-.324.981.981 0 0 0 .11-.472 1.32 1.32 0 0 0-.094-.524.73.73 0 0 0-.278-.34 1.167 1.167 0 0 0-.382-.168 2.151 2.151 0 0 0-.473-.047zm0 .11h.262c.172 0 .32.015.45.047.132.031.25.082.355.152.101.066.18.164.234.293.059.129.086.285.086.477 0 .16-.031.296-.094.414a.815.815 0 0 1-.246.289c-.105.07-.219.133-.348.187a3.02 3.02 0 0 1-.386.133c-.13.035-.246.07-.356.102a.961.961 0 0 0-.277.129.267.267 0 0 0-.125.214v.055h1.672c.043 0 .07.012.097.043.028.031.04.063.04.105v.204c0 .039-.012.07-.044.101a.113.113 0 0 1-.093.043h-2.168a.12.12 0 0 1-.098-.043.133.133 0 0 1-.043-.101v-.317c0-.172.031-.32.094-.445a.805.805 0 0 1 .25-.293c.101-.074.219-.14.344-.191.129-.055.257-.098.386-.13.133-.035.25-.07.36-.105a.885.885 0 0 0 .277-.144.335.335 0 0 0 .121-.25c0-.172-.043-.301-.137-.375-.09-.07-.226-.098-.41-.098h-.136c-.262 0-.454.098-.54.297-.054.12-.12.172-.218.172h-.235a.193.193 0 0 1-.058-.012c-.012-.008-.035-.023-.059-.059a.177.177 0 0 1-.031-.113c0-.152.047-.285.156-.406a.976.976 0 0 1 .406-.281c.165-.063.332-.094.512-.094zM17.95 11.71a2.312 2.312 0 0 1-.106-.741c0-.29.035-.535.105-.742a1.14 1.14 0 0 1 .309-.485c.133-.117.281-.199.441-.254a1.73 1.73 0 0 1 .547-.078h.137c.203 0 .387.024.547.078a1.14 1.14 0 0 1 .75.738c.07.208.11.454.11.743s-.04.535-.11.742a1.14 1.14 0 0 1-.309.484 1.21 1.21 0 0 1-.441.25c-.16.055-.344.082-.547.082h-.137c-.203 0-.387-.027-.547-.082a1.242 1.242 0 0 1-.441-.25 1.14 1.14 0 0 1-.309-.484zm1.366-1.694c-.492 0-.738.32-.738.953s.246.953.738.953c.489 0 .735-.32.735-.953s-.246-.953-.735-.953zm0 0"/><path style="stroke:none;fill-rule:nonzero;fill:#fffffd;fill-opacity:1" d="M19.254 9.355c-.207 0-.395.024-.563.079-.168.058-.32.144-.46.265a1.184 1.184 0 0 0-.32.508 2.34 2.34 0 0 0-.11.762c0 .293.035.547.11.761.073.215.183.383.32.508.14.121.292.207.46.262.168.055.356.082.563.082h.137c.207 0 .394-.027.558-.082a1.32 1.32 0 0 0 .461-.262c.14-.12.246-.293.32-.508.075-.214.114-.468.114-.761s-.035-.547-.114-.762a1.148 1.148 0 0 0-.32-.508 1.33 1.33 0 0 0-.46-.265 1.772 1.772 0 0 0-.56-.079zm0 .11h.137c.199 0 .375.023.53.074.157.055.298.133.427.246.125.11.222.262.289.461.07.2.105.438.105.723 0 .281-.035.523-.105.722-.067.2-.164.352-.29.461-.128.11-.269.192-.425.243-.156.05-.332.078-.531.078h-.137c-.2 0-.379-.028-.535-.078a1.253 1.253 0 0 1-.426-.243 1.1 1.1 0 0 1-.29-.46c-.07-.2-.105-.442-.105-.723 0-.285.036-.524.106-.723a1.1 1.1 0 0 1 .289-.46c.129-.114.27-.192.426-.247.16-.05.336-.074.535-.074zm.066.496c-.254 0-.457.086-.59.258-.132.172-.195.426-.195.75s.063.578.195.75c.133.172.336.258.59.258.258 0 .457-.086.59-.258.137-.172.2-.426.2-.75s-.063-.578-.2-.75c-.133-.172-.332-.258-.59-.258zm0 .11c.239 0 .403.074.516.218.113.149.172.371.172.68 0 .308-.059.535-.172.68-.113.144-.277.214-.516.214-.234 0-.402-.07-.511-.215-.114-.144-.172-.37-.172-.68 0-.308.058-.53.172-.679.109-.144.277-.219.511-.219zM20.941 10.176a.129.129 0 0 1-.023-.074c0-.04.02-.082.062-.122l.477-.449a.387.387 0 0 1 .29-.105h.284c.055 0 .098.02.137.062.035.04.055.086.055.14v2.68c0 .055-.02.102-.059.145a.186.186 0 0 1-.133.055h-.363a.163.163 0 0 1-.129-.055.205.205 0 0 1-.055-.14v-2.079l-.222.18a.107.107 0 0 1-.09.02.13.13 0 0 1-.082-.051zm0 0"/><path style="stroke:none;fill-rule:nonzero;fill:#fffffd;fill-opacity:1" d="M21.738 9.371a.434.434 0 0 0-.316.117l-.477.45a.224.224 0 0 0-.082.164c0 .035.012.074.032.105l.003.004.149.207a.18.18 0 0 0 .11.066.15.15 0 0 0 .128-.027l.145-.117v1.969c0 .07.023.132.07.183.043.047.102.07.164.07h.363a.234.234 0 0 0 .168-.07v-.004a.275.275 0 0 0 .07-.183V9.629a.263.263 0 0 0-.07-.184.23.23 0 0 0-.168-.074zm0 .11h.29c.042 0 .07.011.097.042a.136.136 0 0 1 .043.106v2.676a.15.15 0 0 1-.043.105.125.125 0 0 1-.098.043h-.363a.13.13 0 0 1-.098-.039.164.164 0 0 1-.035-.105V10.12l-.304.246c-.016.012-.028.016-.051.012a.103.103 0 0 1-.055-.035l-.144-.2c-.012-.019-.016-.03-.016-.042 0-.02.012-.047.047-.082l.476-.45c.059-.058.141-.09.254-.09zM22.54 9.832v-.203c0-.055.019-.102.058-.14a.166.166 0 0 1 .132-.063h2.09c.051 0 .094.02.133.062.035.04.055.086.055.14v.2c0 .102-.04.23-.117.39l-1.028 2.09c-.066.133-.152.2-.254.2h-.402c-.055 0-.09-.016-.11-.055-.023-.039-.023-.078 0-.125l1.13-2.293H22.73a.177.177 0 0 1-.136-.058.214.214 0 0 1-.055-.145zm0 0"/><path style="stroke:none;fill-rule:nonzero;fill:#fffffd;fill-opacity:1" d="M22.719 9.371a.225.225 0 0 0-.168.074.267.267 0 0 0-.074.184v.203a.27.27 0 0 0 .07.184.238.238 0 0 0 .168.074h1.414l-1.09 2.21a.207.207 0 0 0 0 .18c.031.055.09.082.156.082h.399c.125 0 .23-.085.3-.23l1.028-2.086c.078-.168.125-.305.125-.418v-.2a.267.267 0 0 0-.074-.183.222.222 0 0 0-.164-.074zm0 .11h2.09c.039 0 .066.011.093.042a.136.136 0 0 1 .043.106v.2a.898.898 0 0 1-.113.362l-1.023 2.09c-.063.121-.13.172-.215.172h-.399c-.043 0-.058-.012-.07-.031-.012-.024-.012-.04.004-.07l1.168-2.375h-1.582a.13.13 0 0 1-.098-.04.147.147 0 0 1-.039-.105v-.203c0-.043.012-.074.04-.106a.13.13 0 0 1 .097-.043zM15.426 19.105h-.617l-1.555-5.015H9.879v1.14h.363l-1.187 3.875h-.598v1.157h2.793v-1.157h-.684l.184-.601h1.8l.184.601h-.832v1.157h3.524zm-3.778-3.566.579 1.906h-1.153zm0 0"/><path style="stroke:none;fill-rule:nonzero;fill:#fffffd;fill-opacity:1" d="M15.426 19.105h-.617l-1.555-5.015H9.879v1.14h.363l-1.187 3.875h-.598v1.157h2.793v-1.157h-.684l.184-.601h1.8l.184.601h-.832v1.157h3.524zm-3.778-3.566.579 1.906h-1.153zm0 0"/><path style="stroke:none;fill-rule:nonzero;fill:#fffffd;fill-opacity:1" d="M15.426 19.105h-.617l-1.555-5.015H9.879v1.14h.363l-1.187 3.875h-.598v1.157h2.793v-1.157h-.684l.184-.601h1.8l.184.601h-.832v1.157h3.524zm-3.778-3.566.579 1.906h-1.153zm0 0"/><path style="stroke:none;fill-rule:nonzero;fill:#fffffd;fill-opacity:1" d="M15.426 19.105h-.617l-1.555-5.015H9.879v1.14h.363l-1.187 3.875h-.598v1.157h2.793v-1.157h-.684l.184-.601h1.8l.184.601h-.832v1.157h3.524zm-3.778-3.566.579 1.906h-1.153zM21.902 15.645v.52l.008 2.948h-.5v1.149h2.777v-1.149h-.484V15.23h.485v-1.14H20.84l-.844 3.3-.887-3.3h-3.332v1.14h.47v3.891h-.477v1.14h2.382v-1.14h-.504v-3.476h.036c.027.44.14.945.187 1.093l.984 3.524h1.836l.922-3.434c.063-.203.184-.785.254-1.183zm0 0"/><path style="stroke:none;fill-rule:nonzero;fill:#fffffd;fill-opacity:1" d="M21.902 15.645v.52l.008 2.948h-.5v1.149h2.777v-1.149h-.484V15.23h.485v-1.14H20.84l-.844 3.3-.887-3.3h-3.332v1.14h.47v3.891h-.477v1.14h2.382v-1.14h-.504v-3.476h.036c.027.44.14.945.187 1.093l.984 3.524h1.836l.922-3.434c.063-.203.184-.785.254-1.183zm0 0"/><path style="stroke:none;fill-rule:nonzero;fill:#fffffd;fill-opacity:1" d="M21.902 15.645v.52l.008 2.948h-.5v1.149h2.777v-1.149h-.484V15.23h.485v-1.14H20.84l-.844 3.3-.887-3.3h-3.332v1.14h.47v3.891h-.477v1.14h2.382v-1.14h-.504v-3.476h.036c.027.44.14.945.187 1.093l.984 3.524h1.836l.922-3.434c.063-.203.184-.785.254-1.183zm0 0"/><path style="stroke:none;fill-rule:nonzero;fill:#fffffd;fill-opacity:1" d="M21.902 15.645v.52l.008 2.948h-.5v1.149h2.777v-1.149h-.484V15.23h.485v-1.14H20.84l-.844 3.3-.887-3.3h-3.332v1.14h.47v3.891h-.477v1.14h2.382v-1.14h-.504v-3.476h.036c.027.44.14.945.187 1.093l.984 3.524h1.836l.922-3.434c.063-.203.184-.785.254-1.183zM31.508 19.105h-.617l-1.555-5.015h-3.371v1.14h.36l-1.188 3.875h-.598v1.157h2.793v-1.157h-.684l.184-.601h1.8l.188.601h-.836v1.157h3.524zM27.73 15.54l.579 1.906H27.16zm0 0"/><path style="stroke:none;fill-rule:nonzero;fill:#fffffd;fill-opacity:1" d="M31.508 19.105h-.617l-1.555-5.015h-3.371v1.14h.36l-1.188 3.875h-.598v1.157h2.793v-1.157h-.684l.184-.601h1.8l.188.601h-.836v1.157h3.524zM27.73 15.54l.579 1.906H27.16zm0 0"/><path style="stroke:none;fill-rule:nonzero;fill:#fffffd;fill-opacity:1" d="M31.508 19.105h-.617l-1.555-5.015h-3.371v1.14h.36l-1.188 3.875h-.598v1.157h2.793v-1.157h-.684l.184-.601h1.8l.188.601h-.836v1.157h3.524zM27.73 15.54l.579 1.906H27.16zm0 0"/><path style="stroke:none;fill-rule:nonzero;fill:#fffffd;fill-opacity:1" d="M31.508 19.105h-.617l-1.555-5.015h-3.371v1.14h.36l-1.188 3.875h-.598v1.157h2.793v-1.157h-.684l.184-.601h1.8l.188.601h-.836v1.157h3.524zM27.73 15.54l.579 1.906H27.16zM15.875 21.648c-.348-.007-.598.012-.598.012l-.093.008v.773l-.63.004v.883l-.507-.004v7.242l5.969-.007h.011l5.965.007v-7.242l-.508.004v-.883l-.625-.004v-.773l-.097-.008s-1-.078-1.766.137c-1.875.52-2.808 1.254-2.976 1.394-.168-.14-1.098-.875-2.977-1.394a5.043 5.043 0 0 0-1.172-.149zm0 .204c.336.007.758.039 1.113.136 1.942.54 2.848 1.309 2.93 1.38v.003l-.008 6.348c-.047-.024-.047-.028-.11-.063a2.517 2.517 0 0 0-.476-.207c-.668-.18-1.676-.254-2.523-.281-.79-.027-1.34-.016-1.426-.016l.012-6.609v-.684c.062-.004.207-.011.488-.007zm8.29 0c.28-.004.425.003.487.007l.012 7.293c-.086 0-.637-.011-1.426.016-.847.027-1.855.102-2.523.281-.149.04-.328.13-.477.207-.058.035-.062.04-.11.063l-.007-6.352c.086-.07.988-.844 2.93-1.379.355-.097.777-.129 1.113-.136zm-8.985.793-.012 6.71.105-.003s.68-.012 1.52.015c.844.031 1.848.106 2.477.274a2.77 2.77 0 0 1 .5.23l-5.008-.062-.004-6.38v-.784zm9.68 0h.421v.785l-.004 6.379-5.007.062c.03-.016.03-.016.066-.039.144-.074.324-.16.434-.191.628-.168 1.632-.243 2.472-.274.844-.027 1.524-.015 1.524-.015l.101.003zm-8.876.293a.101.101 0 0 0-.113.09.104.104 0 0 0 .098.109s.836.066 1.195.187c1.344.446 2.137 1.035 2.137 1.035.02.016.047.024.074.02a.127.127 0 0 0 .07-.04.104.104 0 0 0-.02-.14s-.823-.61-2.195-1.066c-.425-.14-1.246-.195-1.246-.195zm8.075 0s-.825.054-1.247.195c-1.375.457-2.195 1.066-2.195 1.066a.091.091 0 0 0-.039.067c-.004.027 0 .054.02.074.03.043.097.05.144.02 0 0 .793-.59 2.137-1.036.355-.12 1.195-.187 1.195-.187a.104.104 0 0 0 .094-.11c-.004-.054-.055-.093-.11-.09zm-9.809.59h.305l.004 6.48 5.367.066h.086c.004 0 .004 0 .004-.004.004.004.007.004.011.004h.086l5.367-.066.008-6.48h.301v6.84l-5.762-.009c-.004 0-.007 0-.007.004-.004-.004-.004-.004-.008-.004l-5.762.008zm1.738.5c-.058-.005-.11.035-.113.09a.102.102 0 0 0 .02.073c.015.02.043.036.066.036 0 0 1.012.125 1.613.378.688.29 1.696.805 1.696.805.05.027.113.008.136-.043a.097.097 0 0 0-.039-.133s-1.008-.52-1.71-.812c-.657-.274-1.669-.395-1.669-.395zm8.067 0s-1.016.12-1.668.394c-.703.293-1.711.812-1.711.812a.095.095 0 0 0-.043.133c.027.051.09.07.137.043 0 0 1.007-.515 1.699-.805.597-.253 1.61-.378 1.61-.378.026 0 .05-.016.07-.036a.102.102 0 0 0 .019-.074.107.107 0 0 0-.113-.09zm-8.063 1.265a.107.107 0 0 0-.11.098c0 .027.013.05.028.07.02.02.047.031.074.035 0 0 .883.031 1.278.125.672.16 1.996.762 1.996.762.05.023.113 0 .137-.051.023-.047 0-.11-.051-.133 0 0-1.309-.601-2.032-.773-.453-.106-1.324-.133-1.324-.133zm8.059 0s-.871.027-1.32.133c-.727.172-2.036.773-2.036.773-.05.024-.074.086-.047.133.024.05.082.074.137.05 0 0 1.32-.6 1.992-.76.399-.095 1.282-.126 1.282-.126.054-.004.101-.05.097-.105 0-.055-.05-.098-.105-.098zm-.008 1.16s-.969.086-1.457.16c-.195.028-.64.14-1.055.25l-.781.211a.1.1 0 0 0-.059.047.092.092 0 0 0-.011.078c.015.055.074.082.129.07 0 0 .367-.105.777-.21.41-.11.875-.227 1.027-.25.477-.07 1.45-.157 1.45-.157a.099.099 0 0 0 .093-.109c-.004-.055-.054-.094-.113-.09zm-8.047.055c-.055 0-.105.043-.105.097-.004.055.039.102.097.106 0 0 .98.039 1.45.11.332.05 1.011.226 1.011.226a.092.092 0 0 0 .078-.012.106.106 0 0 0 .051-.058.106.106 0 0 0-.074-.125s-.676-.176-1.035-.227c-.5-.074-1.473-.117-1.473-.117zm.008.98a.123.123 0 0 0-.074.028.089.089 0 0 0-.035.07c-.004.055.043.102.097.105 0 0 1.453.067 2.145.2.375.074 1.144.34 1.144.34a.107.107 0 0 0 .078-.004.094.094 0 0 0 .055-.055.107.107 0 0 0-.004-.078.095.095 0 0 0-.058-.051s-.758-.266-1.176-.348c-.73-.14-2.172-.207-2.172-.207zm8.125.059s-1.527.008-2.266.148c-.414.082-1.175.348-1.175.348a.105.105 0 0 0-.063.129c.02.05.078.078.133.058 0 0 .77-.265 1.144-.34.684-.128 2.227-.144 2.227-.144a.107.107 0 0 0 .074-.031c.02-.016.027-.043.027-.07a.1.1 0 0 0-.101-.098zm0 0"/><path style="stroke:none;fill-rule:nonzero;fill:#fffffd;fill-opacity:1" d="M15.875 21.59c-.348-.008-.602.012-.602.012l-.148.011v.77h-.629v.887l-.508-.004v7.359l5.98-.008h.052l6.03.008v-7.36l-.507.005v-.887h-.625v-.77l-.148-.011s-1.004-.082-1.786.136c-1.847.508-2.761 1.215-2.96 1.383-.204-.168-1.118-.875-2.965-1.383-.391-.11-.832-.14-1.18-.148 0 0-.004 0 0 0zm0 .117c.34.004.777.04 1.152.14 1.871.52 2.793 1.25 2.957 1.387l.036.032.039-.032c.164-.136 1.086-.867 2.953-1.386.75-.207 1.746-.13 1.746-.13h.043v.782h.629v.887l.508-.004v7.125l-5.852-.008v-.02l-.074.02-5.907.008v-7.125l.508.004V22.5h.63v-.781h.042s.246-.02.586-.012zm-.008.086c-.273-.008-.422.004-.484.008l-.055.004v.734l-.012 6.672h.059c.086 0 .637-.016 1.426.012.844.03 1.851.101 2.508.28.136.036.316.126.464.204.059.031.063.035.106.063l.09.05.008-6.449.003-.027-.003-.004v-.031h-.043c-.106-.094-1.004-.848-2.93-1.38-.363-.1-.79-.132-1.129-.136zm8.297 0c-.336.004-.766.039-1.125.137-1.953.539-2.867 1.316-2.953 1.394l-.02.016.004 6.48.09-.05c.043-.028.047-.032.106-.063.148-.082.328-.168.464-.203.657-.18 1.665-.25 2.512-.281a22.85 22.85 0 0 1 1.422-.012h.059l-.012-7.406-.055-.004c-.062-.004-.21-.016-.492-.008zm-8.293.117c.332.004.754.035 1.098.133 1.91.527 2.793 1.27 2.89 1.355l-.007 6.22c-.012-.005-.012-.009-.024-.013a2.548 2.548 0 0 0-.488-.214c-.68-.184-1.688-.254-2.535-.282-.758-.027-1.254-.015-1.371-.015l.011-6.555v-.625c.07-.004.18-.012.426-.004zm8.297 0c.246-.008.352 0 .426.004l.011 7.18c-.117 0-.613-.012-1.37.011-.848.032-1.856.102-2.536.286a2.548 2.548 0 0 0-.488.214c-.012.004-.012.008-.023.012l-.008-6.219c.097-.085.98-.828 2.886-1.355.348-.098.766-.129 1.098-.133zm-8.988.672h-.48v.848l.003 6.437 5.067.063.027-.11c-.031-.02-.027-.02-.067-.039a2.671 2.671 0 0 0-.445-.199c-.64-.172-1.644-.246-2.488-.273-.844-.032-1.524-.016-1.524-.016h-.043l.008-6.711zm9.62 0v.059l.012 6.652h-.046s-.68-.016-1.524.016c-.844.027-1.847.101-2.488.273a2.82 2.82 0 0 0-.445.2c-.036.019-.036.019-.067.038l.028.11 5.066-.063.004-6.441v-.844zm-9.679.117-.012 6.715.168-.004s.676-.015 1.516.016c.84.027 1.844.105 2.46.27.06.015.161.07.255.113l-4.688-.059-.004-6.324v-.727zm9.797 0h.305v.727l-.004 6.324-4.688.059c.094-.043.196-.098.254-.114.617-.168 1.621-.242 2.461-.27.84-.03 1.516-.015 1.516-.015l.164.004zm-8.93.176a.165.165 0 0 0-.175.148.16.16 0 0 0 .148.168s.21.02.46.051c.255.031.556.078.724.137 1.335.441 2.12 1.023 2.12 1.023.07.055.172.04.227-.027a.164.164 0 0 0-.031-.223s-.832-.617-2.215-1.078c-.437-.144-1.258-.199-1.258-.199zm8.067 0s-.82.055-1.262.2c-1.379.46-2.211 1.077-2.211 1.077a.157.157 0 0 0-.031.223.16.16 0 0 0 .222.027s.786-.582 2.122-1.023c.171-.059.468-.106.722-.137.254-.031.461-.05.461-.05.086-.008.156-.083.149-.169a.164.164 0 0 0-.172-.148zm-8.075.117h.004c.004 0 .825.059 1.23.195 1.364.454 2.177 1.06 2.177 1.06.023.01.023.034.007.054-.011.02-.039.023-.062.008 0 0-.8-.594-2.152-1.043a4.487 4.487 0 0 0-.743-.141c-.257-.031-.468-.05-.468-.05-.024 0-.043-.02-.04-.044a.04.04 0 0 1 .047-.039zm8.079 0h.003a.04.04 0 0 1 .047.04c0 .023-.011.042-.039.042 0 0-.21.02-.465.051a4.334 4.334 0 0 0-.742.14c-1.355.45-2.156 1.044-2.156 1.044a.044.044 0 0 1-.062-.008c-.016-.02-.012-.043.007-.055 0 0 .817-.605 2.18-1.058.406-.137 1.227-.196 1.23-.196zm-9.864.473v6.957l5.797-.008.016.016.031-.016 5.809.008v-6.957l-.418.004-.008 6.48-5.25.067h-.133L20.004 30l-.016.016h-.12l-5.25-.067-.005-6.48zm.117.117.184.004.004 6.477 5.371.066v-.055h.113l-.058.055.094.004h.011l.082-.004-.058-.055h.117v.055l5.367-.067.004-6.476.187-.004v6.723l-5.699-.008h-.015l-5.707.008zm1.68.387h.004a.165.165 0 0 0-.18.136.162.162 0 0 0 .141.18s1.012.125 1.594.371c.687.285 1.695.805 1.695.805a.16.16 0 0 0 .215-.066.156.156 0 0 0-.066-.215s-1.008-.52-1.715-.817c-.668-.277-1.684-.394-1.684-.394zm8.055 0s-1.016.117-1.684.394c-.707.297-1.715.817-1.715.817a.156.156 0 0 0-.066.215.16.16 0 0 0 .215.066s1.008-.52 1.691-.805c.586-.246 1.598-.37 1.598-.37a.162.162 0 0 0 .14-.18.165.165 0 0 0-.18-.137h.005zm-8.067.117h.004c.008 0 1.012.121 1.649.387.699.293 1.707.808 1.707.808.023.012.031.035.02.059-.012.02-.04.027-.063.015 0 0-1.008-.515-1.7-.804-.617-.258-1.624-.383-1.624-.383-.028-.004-.043-.023-.04-.047.005-.023.024-.039.047-.035zm8.079 0c.027-.004.046.012.05.035.004.024-.011.043-.039.047 0 0-1.011.125-1.629.383-.691.289-1.699.804-1.699.804a.044.044 0 0 1-.058-.015c-.012-.024-.004-.047.02-.059 0 0 1.003-.515 1.706-.808.637-.266 1.64-.387 1.645-.387zm-8.067 1.148a.164.164 0 0 0-.168.153c-.004.086.07.16.156.164 0 0 .887.035 1.27.125.656.156 1.98.758 1.98.758a.163.163 0 0 0 .215-.079c.04-.078 0-.171-.078-.21 0 0-1.3-.602-2.043-.778-.465-.11-1.332-.133-1.332-.133zm8.055 0h.015zm0 0s-.867.024-1.332.133c-.742.176-2.043.778-2.043.778-.078.039-.117.132-.078.21.039.082.133.114.215.079 0 0 1.324-.602 1.984-.758.379-.09 1.266-.125 1.266-.125a.16.16 0 0 0 .156-.164.159.159 0 0 0-.168-.153zm-8.059.118s.871.027 1.309.128c.71.172 2.023.77 2.023.77v.004c.024.008.032.031.02.055-.008.02-.035.027-.059.02 0 0-1.316-.602-2.004-.767-.414-.097-1.293-.128-1.293-.128-.027 0-.043-.02-.043-.043a.04.04 0 0 1 .047-.04zm8.063 0a.04.04 0 0 1 .047.039c0 .023-.016.043-.043.043 0 0-.88.03-1.29.128-.687.165-2.003.766-2.003.766-.024.008-.051 0-.063-.02-.008-.023 0-.046.024-.054v-.004s1.308-.598 2.02-.77c.437-.101 1.312-.128 1.312-.128zm-.012 1.043s-.969.085-1.465.156c-.199.031-.644.144-1.054.254-.415.11-.782.21-.782.21a.163.163 0 0 0-.113.2.161.161 0 0 0 .2.105s.366-.101.777-.207c.41-.11.878-.226 1.023-.246.469-.07 1.441-.156 1.441-.156a.161.161 0 0 0 .149-.172.161.161 0 0 0-.176-.144zM16 26.449a.159.159 0 0 0-.168.153c-.008.085.066.16.152.164 0 0 .985.043 1.446.113.32.047 1.008.223 1.008.223a.163.163 0 0 0 .195-.114.162.162 0 0 0-.113-.195s-.676-.176-1.043-.23c-.504-.075-1.477-.114-1.477-.114zm8.05.063c.024-.004.048.011.048.035a.046.046 0 0 1-.04.047s-.972.086-1.453.156c-.164.027-.62.14-1.035.25l-.777.21c-.027.005-.05-.007-.059-.03-.004-.024.008-.043.032-.051 0 0 .37-.102.78-.211.415-.11.864-.223 1.048-.25.484-.074 1.457-.156 1.457-.156zm-8.054.054s.973.04 1.461.114c.355.05 1.031.226 1.031.226.024.008.035.028.032.051a.048.048 0 0 1-.055.031s-.68-.175-1.02-.226c-.476-.07-1.457-.114-1.457-.114a.043.043 0 0 1-.043-.043c0-.023.024-.043.047-.039zm.008.864a.161.161 0 0 0-.168.152.16.16 0 0 0 .152.164s1.457.07 2.137.203c.363.07 1.137.336 1.137.336a.167.167 0 0 0 .207-.098c.031-.082-.016-.171-.098-.203 0 0-.758-.265-1.183-.347-.743-.14-2.184-.207-2.184-.207zm8.125.054s-1.527.008-2.277.153c-.426.082-1.184.347-1.184.347-.082.032-.129.121-.098.203a.167.167 0 0 0 .207.098s.774-.265 1.137-.336c.668-.129 2.215-.148 2.215-.148.09 0 .16-.07.16-.156a.16.16 0 0 0-.16-.16zM16 27.547s1.445.066 2.164.203c.406.078 1.168.344 1.168.344.023.011.035.031.027.054-.007.024-.035.036-.058.028 0 0-.766-.27-1.153-.344-.703-.133-2.152-.203-2.152-.203-.027 0-.043-.02-.043-.043 0-.023.02-.04.047-.04zm8.129.055c.023 0 .043.02.043.043 0 .023-.016.043-.043.043 0 0-1.54.011-2.238.144-.387.074-1.153.344-1.153.344-.023.008-.05-.004-.058-.028-.008-.023 0-.043.027-.054 0 0 .762-.266 1.168-.344.719-.137 2.254-.148 2.254-.148zm0 0"/></svg>