<svg width="300" height="300" viewBox="0 0 79.375 79.375" xmlns="http://www.w3.org/2000/svg"><path fill="none" opacity=".446" stroke="#ffffff" stroke-linecap="round" stroke-linejoin="round" stroke-width=".026" d="M0 .02h79.349v79.349H0z"/><path d="M275.6 484.14a6.615 6.615 0 0 0-4.15 1.89s-5.902 5.791-14.002 10.628c-6.995 4.176-16.248 7.963-22.648 10.623-12.801 5.32-41.924 12.094-41.924 12.094a6.615 6.615 0 0 0-5.106 5.707s-7.826 66.657 32.076 120.69c6.14 8.313 14.231 16.272 22.811 22.723 15.062 11.325 30.67 17.873 30.67 17.873a6.615 6.615 0 0 0 4.707.168s11.772-4.002 24.812-12.328c10.968-7.004 22.146-16.684 29.857-27.46 40.245-56.232 33.451-121.39 33.451-121.39a6.615 6.615 0 0 0-5.049-5.767s-31.567-7.657-44.37-12.943c-5.736-2.368-14.33-6.752-20.657-10.688-7.763-4.829-11.503-7.236-16.092-10.57a6.615 6.615 0 0 0-4.386-1.246zm1.102 14.9c3.537 2.429 6.648 4.578 12.389 8.148 7.103 4.419 15.904 8.92 22.596 11.682 13.312 5.496 34.783 10.746 41.465 12.35.64 11.134 1.732 61.808-31.205 107.83-6.322 8.834-16.534 17.822-26.221 24.008-9.542 6.093-16.775 8.939-19.58 9.989-3.048-1.362-13.808-6.305-25.54-15.125-7.572-5.694-14.903-12.946-20.118-20.008-32.397-43.871-30.557-95.684-29.78-106.84 6.522-1.506 26.033-6.118 39.169-11.576 6.286-2.613 16.028-6.511 24.355-11.482a90.32 90.32 0 0 0 12.47-8.975z" color="#000" stroke-linecap="round" stroke-linejoin="round" style="-inkscape-stroke:none" transform="matrix(.36104 0 0 .35634 -60.3 -168.94)" fill="#ffffff" stroke="#ffffff"/><g fill="#ffffff" stroke="#ffffff" stroke-width=".676" aria-label="2017"><path d="M-1594.1 551.83v-1.926q0-1.676.686-2.903.7-1.227 1.781-1.926 1.082-.7 2.401-1.2 1.32-.502 2.64-.806 1.332-.316 2.414-.633 1.082-.33 1.768-.844t.686-1.254q0-1.49-.766-2.018-.765-.541-2.586-.541h-.936q-2.547 0-3.351 1.623-.594 1.24-1.782 1.24h-1.57q-.237 0-.514-.093-.264-.092-.554-.461-.29-.37-.29-.91 0-1.518 1.147-2.719 1.161-1.2 2.876-1.807 1.716-.607 3.576-.607h1.781q1.755 0 3.114.303 1.372.29 2.493.977 1.122.672 1.729 1.94.607 1.266.607 3.073 0 1.544-.686 2.718t-1.768 1.874q-1.082.686-2.415 1.187-1.32.501-2.638.831-1.32.317-2.402.62-1.082.29-1.78.74-.687.435-.687 1.028h10.951q.541 0 .897.37.37.37.37.884v1.24q0 .515-.383.884-.37.356-.884.356h-14.645q-.515 0-.897-.356-.383-.37-.383-.884zM-1574.4 548.18q-.726-1.913-.726-4.565t.726-4.552q.739-1.9 2.071-2.969 1.346-1.068 2.995-1.557 1.65-.488 3.695-.488h.923q2.058 0 3.694.488 1.65.489 2.982 1.557 1.346 1.07 2.072 2.969.739 1.9.739 4.552 0 2.652-.74 4.565-.725 1.9-2.07 2.969-1.333 1.055-2.983 1.543-1.636.488-3.694.488h-.923q-2.059 0-3.708-.488-1.636-.488-2.982-1.543-1.332-1.07-2.071-2.969zm9.223-10.397q-4.975 0-4.975 5.845 0 5.832 4.975 5.832t4.974-5.832q0-5.845-4.975-5.845zM-1554.2 538.76q-.158-.224-.158-.462 0-.37.435-.739l3.22-2.77q.699-.62 1.939-.634h1.94q.54 0 .91.37t.37.884v16.426q0 .514-.384.884-.382.356-.897.356h-2.454q-.514 0-.884-.343-.356-.356-.356-.87v-12.759l-1.517 1.108q-.264.185-.607.12-.343-.067-.554-.304zM-1543.4 536.65v-1.24q0-.515.383-.884.382-.37.897-.37h14.13q.514 0 .884.37.382.37.382.884v1.214q0 .923-.804 2.4l-6.927 12.812q-.673 1.24-1.728 1.24h-2.705q-.541 0-.752-.343-.211-.356 0-.765l7.626-14.078h-10.106q-.541 0-.91-.356-.37-.37-.37-.884z" transform="matrix(.29375 0 0 .32338 498.1 -154.01)"/></g><g stroke="none" color="#000" fill="#0d6eff" stroke-width="0" aria-label="AMA"><path d="M-1570.6 607.88h-4.624l-11.69-37.517h-25.365v8.52h2.709l-8.917 28.998h-4.492v8.652h21.004v-8.652h-5.152l1.387-4.492h13.54l1.387 4.492h-6.275v8.652h26.487zm-28.402-26.685 4.36 14.267h-8.653z" style="-inkscape-stroke:none" transform="matrix(.26397 0 0 .2652 445.2 -123.28)"/><path d="M-1570.6 607.88h-4.624l-11.69-37.517h-25.365v8.52h2.709l-8.917 28.998h-4.492v8.652h21.004v-8.652h-5.152l1.387-4.492h13.54l1.387 4.492h-6.275v8.652h26.487zm-28.402-26.685 4.36 14.267h-8.653zM-1521.9 581.99v3.897l.066 22.061h-3.765v8.587h20.872v-8.587h-3.633v-29.063h3.633v-8.52h-25.166l-6.34 24.702-6.672-24.703h-25.034v8.521h3.5v29.129h-3.566v8.52h17.9v-8.52h-3.765V581.99h.264c.198 3.303 1.057 7.068 1.387 8.19l7.398 26.355h13.805l6.936-25.694c.462-1.519 1.387-5.878 1.915-8.85z" style="-inkscape-stroke:none" transform="matrix(.26397 0 0 .2652 445.2 -123.28)"/><path d="M-1521.9 581.99v3.897l.066 22.061h-3.765v8.587h20.872v-8.587h-3.633v-29.063h3.633v-8.52h-25.166l-6.34 24.702-6.672-24.703h-25.034v8.521h3.5v29.129h-3.566v8.52h17.9v-8.52h-3.765V581.99h.264c.198 3.303 1.057 7.068 1.387 8.19l7.398 26.355h13.805l6.936-25.694c.462-1.519 1.387-5.878 1.915-8.85zM-1449.7 607.88h-4.624l-11.69-37.517h-25.365v8.52h2.708l-8.916 28.998h-4.492v8.652h21.004v-8.652h-5.152l1.387-4.492h13.54l1.387 4.492h-6.275v8.652h26.487zm-28.402-26.685 4.36 14.267h-8.653z" style="-inkscape-stroke:none" transform="matrix(.26397 0 0 .2652 445.2 -123.28)"/><path d="M-1449.7 607.88h-4.624l-11.69-37.517h-25.365v8.52h2.708l-8.916 28.998h-4.492v8.652h21.004v-8.652h-5.152l1.387-4.492h13.54l1.387 4.492h-6.275v8.652h26.487zm-28.402-26.685 4.36 14.267h-8.653z" style="-inkscape-stroke:none" transform="matrix(.26397 0 0 .2652 445.2 -123.28)"/></g><path d="M-1647.7 525.27c-.686-.014-1.182.025-1.182.025l-.188.014v1.534l-1.246.004v1.755l-1.007-.005v14.369l11.841-.016a.204.199 0 0 0 .022-.004.204.199 0 0 0 0 .004l11.841.016v-14.37l-1.008.006v-1.754l-1.245-.004v-1.535l-.188-.014s-1.985-.155-3.505.266c-3.726 1.03-5.574 2.492-5.907 2.772-.333-.28-2.181-1.742-5.907-2.772-.76-.21-1.637-.277-2.323-.291zm0 .402c.665.015 1.506.077 2.208.271 3.856 1.066 5.651 2.596 5.814 2.74 0 0 0 0 0 0l-.015 12.602c-.088-.05-.095-.058-.216-.123-.296-.16-.65-.337-.943-.416-1.326-.358-3.325-.499-5.007-.557-1.566-.054-2.661-.03-2.83-.027l.02-13.12v-1.353c.127-.007.41-.028.968-.016zm16.452 0c.557-.012.84.01.967.017l.023 14.473c-.17-.003-1.265-.027-2.83.027-1.682.058-3.682.2-5.008.558-.292.079-.646.256-.942.415-.122.066-.129.073-.217.124l-.015-12.604c.165-.144 1.96-1.673 5.814-2.739.702-.194 1.543-.256 2.208-.27zm-17.829 1.57-.021 13.32.208-.004s1.348-.029 3.017.029 3.663.206 4.913.544c.216.058.57.227.854.38.075.04.071.04.135.076l-9.935-.122-.01-12.662v-1.56zm19.207 0 .837.002v1.559l-.01 12.662-9.934.122c.063-.035.06-.036.134-.076.285-.153.64-.322.855-.38 1.25-.338 3.244-.486 4.913-.544 1.668-.058 3.016-.03 3.016-.03l.208.005zm-17.614.582a.204.199 0 0 0-.219.183.204.199 0 0 0 .188.213s1.661.136 2.371.372c2.668.888 4.242 2.055 4.242 2.055a.204.199 0 0 0 .286-.038.204.199 0 0 0-.039-.279s-1.632-1.208-4.357-2.115c-.839-.28-2.472-.391-2.472-.391zm16.023 0s-1.633.112-2.472.391c-2.724.907-4.357 2.115-4.357 2.115a.204.199 0 0 0-.039.279.204.199 0 0 0 .285.038s1.575-1.167 4.243-2.055c.71-.236 2.371-.372 2.371-.372a.204.199 0 0 0 .188-.213.204.199 0 0 0-.219-.183zm-19.458 1.172.6.004.01 12.858 10.653.132v.002-.002l.168.002a.204.199 0 0 0 .01-.01.204.199 0 0 0 .023.01l.169-.002v.002-.002l10.652-.132.01-12.858.6-.004v13.57l-11.433-.015a.204.199 0 0 0-.02.008.204.199 0 0 0-.01-.008l-11.432.016zm3.445.996a.204.199 0 0 0-.227.174.204.199 0 0 0 .177.221s2.004.249 3.197.748c1.367.572 3.365 1.598 3.365 1.598a.204.199 0 0 0 .275-.083.204.199 0 0 0-.085-.269s-1.998-1.028-3.395-1.612c-1.296-.543-3.307-.777-3.307-.777zm16.004 0s-2.01.235-3.307.777c-1.397.584-3.395 1.612-3.395 1.612a.204.199 0 0 0-.085.269.204.199 0 0 0 .275.083s1.998-1.026 3.365-1.598c1.193-.499 3.197-.747 3.197-.747a.204.199 0 0 0 .177-.222.204.199 0 0 0-.227-.174zm-16 2.51a.204.199 0 0 0-.21.192.204.199 0 0 0 .196.206s1.752.068 2.54.254c1.335.315 3.957 1.508 3.957 1.508a.204.199 0 0 0 .27-.096.204.199 0 0 0-.097-.264s-2.594-1.195-4.035-1.535c-.894-.211-2.62-.265-2.62-.265zm15.995 0s-1.727.054-2.62.265c-1.442.34-4.035 1.535-4.035 1.535a.204.199 0 0 0-.098.264.204.199 0 0 0 .27.096s2.623-1.192 3.958-1.508c.788-.186 2.54-.254 2.54-.254a.204.199 0 0 0 .196-.206.204.199 0 0 0-.211-.192zm-.011 2.302s-1.924.17-2.899.314c-.38.056-1.267.284-2.086.5s-1.55.419-1.55.419a.204.199 0 0 0-.14.246.204.199 0 0 0 .25.137s.731-.203 1.547-.418c.815-.215 1.734-.445 2.04-.49.942-.14 2.875-.311 2.875-.311a.204.199 0 0 0 .184-.217.204.199 0 0 0-.221-.18zm-15.971.11a.204.199 0 0 0-.212.19.204.199 0 0 0 .194.207s1.947.084 2.876.223c.658.097 2.013.446 2.013.446a.204.199 0 0 0 .249-.142.204.199 0 0 0-.145-.243s-1.34-.348-2.056-.455c-.987-.146-2.92-.226-2.92-.226zm.012 1.947a.204.199 0 0 0-.214.189.204.199 0 0 0 .194.208s2.886.137 4.254.401c.747.144 2.275.672 2.275.672a.204.199 0 0 0 .26-.12.204.199 0 0 0-.124-.255s-1.506-.528-2.331-.687c-1.448-.28-4.314-.408-4.314-.408zm16.125.11s-3.034.016-4.494.298c-.826.159-2.332.687-2.332.687a.204.199 0 0 0-.123.254.204.199 0 0 0 .26.121s1.527-.528 2.274-.672c1.355-.261 4.417-.29 4.417-.29a.204.199 0 0 0 .203-.2.204.199 0 0 0-.205-.199z" color="#000" fill="#ffffff" stroke="#ffffff" stroke-linecap="round" stroke-width=".231" style="-inkscape-stroke:none" transform="translate(1679.2 -482.29)"/></svg>