<svg width="300" height="300" viewBox="0 0 79.375 79.375" xmlns="http://www.w3.org/2000/svg"><g fill="#f8f9ff"><path d="M-1679.19 482.308a.013.013 0 0 0 0 .01v79.355a.013.013 0 0 0 0 .01h79.373a.013.013 0 0 0 0-.01v-79.355a.013.013 0 0 0 0-.01zm0 .03h79.345v79.328h-79.345z" color="#000" opacity=".446" style="-inkscape-stroke:none" transform="translate(1679.191 -482.308)"/><g color="#000"><path d="M275.602 484.137a6.615 6.615 0 0 0-4.15 1.89s-5.903 5.791-14.003 10.627c-6.994 4.177-16.248 7.964-22.648 10.623-12.801 5.32-41.924 12.094-41.924 12.094a6.615 6.615 0 0 0-5.106 5.707s-7.826 66.657 32.077 120.692c6.139 8.313 14.23 16.271 22.81 22.722 15.062 11.325 30.67 17.873 30.67 17.873a6.615 6.615 0 0 0 4.707.168s11.772-4.001 24.813-12.328c10.967-7.003 22.145-16.683 29.857-27.459 40.245-56.233 33.451-121.394 33.451-121.394a6.615 6.615 0 0 0-5.049-5.768s-31.566-7.657-44.37-12.943c-5.736-2.368-14.33-6.753-20.657-10.688-7.763-4.828-11.503-7.236-16.092-10.57a6.615 6.615 0 0 0-4.386-1.246zm1.101 14.9c3.538 2.429 6.649 4.578 12.389 8.149 7.103 4.418 15.904 8.919 22.596 11.681 13.311 5.496 34.783 10.746 41.464 12.35.641 11.134 1.733 61.808-31.205 107.83-6.322 8.833-16.533 17.822-26.22 24.008-9.542 6.092-16.775 8.938-19.58 9.988-3.048-1.362-13.808-6.304-25.54-15.125-7.572-5.694-14.904-12.946-20.119-20.008-32.397-43.87-30.556-95.684-29.779-106.84 6.521-1.505 26.032-6.117 39.168-11.576 6.286-2.612 16.028-6.51 24.355-11.482a90.296 90.296 0 0 0 12.471-8.975z" style="-inkscape-stroke:none" transform="matrix(.36115 0 0 .35637 -60.302 -168.966)"/><path d="M275.564 483.639a7.117 7.117 0 0 0-4.464 2.033c-.003.003-5.868 5.753-13.907 10.553-6.942 4.145-16.18 7.93-22.584 10.591-12.692 5.275-41.845 12.069-41.845 12.069a7.117 7.117 0 0 0-5.489 6.136c0 .006-7.865 66.83 32.17 121.045 6.174 8.36 14.296 16.348 22.912 22.827 15.12 11.368 30.773 17.932 30.776 17.933a7.12 7.12 0 0 0 5.062.18s11.828-4.018 24.922-12.379c11.014-7.033 22.232-16.744 29.994-27.59 40.366-56.4 33.544-121.73 33.543-121.736v-.002a7.12 7.12 0 0 0-5.43-6.201h-.001c-.003-.001-31.602-7.68-44.295-12.92-5.697-2.352-14.289-6.733-20.584-10.649-7.76-4.827-11.485-7.225-16.06-10.55h-.003a7.116 7.116 0 0 0-4.717-1.34zm.075.996a6.114 6.114 0 0 1 4.054 1.152.5.5 0 0 0 .002 0c4.6 3.343 8.356 5.76 16.121 10.59 6.358 3.954 14.955 8.343 20.729 10.727 12.915 5.331 44.445 12.966 44.445 12.966a.5.5 0 0 0 .002 0 6.111 6.111 0 0 1 4.666 5.332.5.5 0 0 0 0 .002s6.764 64.988-33.36 121.051c-7.66 10.705-18.798 20.355-29.72 27.328-12.986 8.292-24.703 12.278-24.703 12.278a.5.5 0 0 0-.002 0 6.11 6.11 0 0 1-4.35-.157.5.5 0 0 0-.002 0s-15.559-6.531-30.562-17.812c-8.543-6.423-16.604-14.352-22.709-22.62-39.767-53.85-31.982-120.335-31.982-120.335a.5.5 0 0 0 0-.002 6.113 6.113 0 0 1 4.72-5.276.5.5 0 0 0 .002-.002s29.092-6.754 42.002-12.119c6.398-2.659 15.666-6.447 22.713-10.654 8.16-4.872 14.096-10.7 14.096-10.7a.5.5 0 0 0 .002-.001 6.113 6.113 0 0 1 3.836-1.748zm1.347 13.99a.5.5 0 0 0-.607.031 89.776 89.776 0 0 1-12.402 8.926c-8.279 4.943-18 8.836-24.291 11.451-13.066 5.43-32.574 10.047-39.09 11.55a.5.5 0 0 0-.385.452c-.781 11.208-2.64 63.143 29.875 107.172 5.25 7.11 12.609 14.388 20.22 20.111 11.778 8.855 22.578 13.815 25.637 15.182a.5.5 0 0 0 .38.012c2.818-1.055 10.094-3.92 19.673-10.036 9.738-6.217 19.98-15.228 26.358-24.138 33.04-46.168 31.942-96.962 31.298-108.15a.5.5 0 0 0-.382-.458c-6.678-1.603-28.151-6.86-41.391-12.326-6.657-2.748-15.448-7.241-22.524-11.642-5.732-3.566-8.83-5.708-12.369-8.137zm-.256 1.03c3.43 2.354 6.494 4.469 12.098 7.954 7.132 4.436 15.943 8.945 22.668 11.721 13.247 5.469 34.255 10.616 41.168 12.277.638 11.591 1.46 61.623-31.123 107.149-6.267 8.757-16.448 17.724-26.084 23.877-9.379 5.988-16.425 8.781-19.295 9.86-3.156-1.414-13.684-6.276-25.254-14.975-7.533-5.665-14.838-12.891-20.017-19.905-32.091-43.456-30.47-94.643-29.69-106.152 6.736-1.558 25.808-6.079 38.867-11.506 6.28-2.61 16.045-6.513 24.42-11.514 5.325-3.179 9.312-6.302 12.242-8.787z" style="-inkscape-stroke:none" transform="matrix(.36115 0 0 .35637 -60.302 -168.966)"/></g><g color="#000" stroke-width=".676" aria-label="2017"><path d="M-1594.088 551.832v-1.927q0-1.675.687-2.902.699-1.227 1.78-1.927 1.083-.699 2.402-1.2 1.32-.502 2.639-.805 1.332-.317 2.414-.633 1.082-.33 1.768-.845t.686-1.253q0-1.491-.765-2.019-.765-.54-2.586-.54h-.937q-2.546 0-3.35 1.622-.595 1.24-1.782 1.24h-1.57q-.238 0-.515-.092-.264-.092-.554-.462-.29-.37-.29-.91 0-1.518 1.148-2.718 1.16-1.2 2.876-1.808 1.715-.607 3.575-.607h1.782q1.754 0 3.113.304 1.373.29 2.494.976 1.121.673 1.728 1.94.607 1.266.607 3.074 0 1.543-.686 2.718-.686 1.174-1.768 1.873-1.082.686-2.414 1.188-1.32.501-2.639.83-1.32.317-2.401.62-1.082.291-1.781.74-.686.435-.686 1.029h10.95q.541 0 .898.37.369.369.369.883v1.24q0 .515-.383.885-.369.356-.884.356h-14.645q-.514 0-.897-.357-.383-.369-.383-.883z" style="-inkscape-stroke:none" transform="matrix(.29384 0 0 .3234 498.2 -154.041)"/><path d="M-1586.46 533.709c-1.278 0-2.51.208-3.69.625-1.187.42-2.194 1.053-3.006 1.893-.815.851-1.24 1.854-1.24 2.95 0 .422.118.81.36 1.12.217.275.438.477.71.572v.002c.212.07.419.11.62.11h1.571c.908 0 1.65-.525 2.084-1.428.474-.955 1.423-1.436 3.049-1.436h.938c1.18 0 1.983.193 2.39.48v.003c.388.267.62.804.62 1.74 0 .388-.156.686-.551.982-.417.313-.971.582-1.665.793-.713.21-1.512.418-2.394.627a20.47 20.47 0 0 0-2.682.819c-.9.342-1.72.752-2.463 1.232-.769.497-1.403 1.184-1.892 2.043v.002c-.49.875-.73 1.903-.73 3.066v1.928c0 .427.174.826.486 1.127v.004c.31.29.706.447 1.127.447h14.646c.421 0 .815-.159 1.117-.45.312-.301.487-.701.487-1.128v-1.24c0-.423-.168-.82-.47-1.121-.296-.305-.699-.47-1.134-.47h-10.373c.08-.133.07-.269.289-.407.427-.274.989-.51 1.686-.697v-.002c.716-.201 1.512-.407 2.388-.617a23.743 23.743 0 0 0 2.676-.844v.002a13.444 13.444 0 0 0 2.475-1.219v-.002a5.826 5.826 0 0 0 1.875-1.986c.49-.839.732-1.81.732-2.889 0-1.243-.207-2.32-.639-3.22-.43-.897-1.054-1.6-1.859-2.083a8.19 8.19 0 0 0-2.598-1.017c-.935-.209-1.995-.31-3.183-.31zm0 .676h1.78c1.15 0 2.164.1 3.04.295.88.186 1.673.497 2.386.933v.002c.69.415 1.218 1.005 1.598 1.797.377.788.572 1.76.572 2.928 0 .979-.214 1.82-.639 2.547a5.138 5.138 0 0 1-1.66 1.761c-.699.444-1.481.828-2.35 1.155-.867.33-1.733.604-2.599.82v-.002a66.16 66.16 0 0 0-2.41.623c-.745.2-1.369.456-1.873.78-.516.327-.844.788-.844 1.314v.338h11.29c.283 0 .475.08.653.265v.004c.191.191.27.385.27.647v1.24c0 .26-.081.449-.28.64a.86.86 0 0 1-.648.262h-14.646a.907.907 0 0 1-.664-.263.817.817 0 0 1-.278-.639v-1.928c0-1.07.218-1.973.643-2.734v-.002c.442-.776.997-1.374 1.67-1.809.7-.452 1.478-.84 2.338-1.168a19.796 19.796 0 0 1 2.595-.79 49.177 49.177 0 0 0 2.432-.64v-.001c.75-.229 1.373-.523 1.871-.897.52-.39.822-.926.822-1.523 0-1.05-.279-1.858-.91-2.295-.613-.433-1.533-.602-2.779-.602h-.92c-1.77 0-3.055.602-3.654 1.81v.005c-.358.748-.803 1.047-1.477 1.047h-1.57c-.114 0-.248-.022-.404-.074-.08-.03-.227-.134-.397-.35-.144-.183-.217-.403-.217-.703 0-.926.338-1.734 1.053-2.483.736-.76 1.646-1.335 2.746-1.724a10.294 10.294 0 0 1 3.463-.586zM-1574.402 548.177q-.726-1.913-.726-4.565t.726-4.552q.739-1.9 2.071-2.969 1.346-1.068 2.995-1.557 1.65-.488 3.694-.488h.924q2.058 0 3.694.488 1.65.489 2.982 1.557 1.346 1.07 2.071 2.969.74 1.9.74 4.552 0 2.652-.74 4.565-.725 1.9-2.071 2.968-1.333 1.056-2.982 1.544-1.636.488-3.694.488h-.924q-2.058 0-3.707-.488-1.636-.488-2.982-1.544-1.333-1.068-2.071-2.968zm9.222-10.397q-4.974 0-4.974 5.845 0 5.832 4.974 5.832t4.974-5.832q0-5.845-4.974-5.845z" style="-inkscape-stroke:none" transform="matrix(.29384 0 0 .3234 498.2 -154.041)"/><path d="M-1565.643 533.709c-1.39 0-2.653.166-3.789.502a9.123 9.123 0 0 0-3.109 1.615v.002c-.94.755-1.664 1.799-2.174 3.11v.002c-.502 1.315-.746 2.873-.746 4.671s.244 3.362.746 4.686v.002c.51 1.31 1.233 2.355 2.174 3.11v.003a9.272 9.272 0 0 0 3.094 1.602c1.136.336 2.404.502 3.803.502h.923c1.4 0 2.664-.166 3.791-.502a9.11 9.11 0 0 0 3.096-1.604c.95-.754 1.675-1.8 2.176-3.11.511-1.325.762-2.89.762-4.688s-.25-3.358-.762-4.674c-.5-1.31-1.225-2.356-2.174-3.11a8.987 8.987 0 0 0-3.098-1.617c-1.127-.336-2.392-.502-3.79-.502zm0 .676h.924c1.346 0 2.544.158 3.598.472a8.291 8.291 0 0 1 2.865 1.498c.844.67 1.5 1.603 1.967 2.825v.002c.473 1.217.715 2.693.715 4.43s-.241 3.216-.715 4.443v.002c-.467 1.221-1.123 2.154-1.967 2.824a8.41 8.41 0 0 1-2.867 1.484c-1.053.315-2.252.475-3.598.475h-.923c-1.345 0-2.547-.16-3.61-.475a8.585 8.585 0 0 1-2.867-1.486c-.834-.67-1.488-1.603-1.963-2.822-.465-1.227-.705-2.708-.705-4.446s.24-3.214.705-4.431c.475-1.221 1.132-2.155 1.967-2.824a8.432 8.432 0 0 1 2.879-1.498c1.063-.315 2.26-.473 3.597-.473zm.463 3.058c-1.724 0-3.087.522-3.988 1.58-.901 1.06-1.324 2.606-1.324 4.602 0 1.992.423 3.537 1.324 4.594.901 1.056 2.264 1.576 3.988 1.576s3.087-.52 3.989-1.576 1.324-2.602 1.324-4.594c0-1.996-.423-3.543-1.324-4.602-.901-1.058-2.264-1.58-3.989-1.58zm0 .674c1.592 0 2.716.454 3.473 1.344.757.89 1.164 2.264 1.164 4.164 0 1.896-.407 3.267-1.164 4.154-.757.888-1.88 1.34-3.473 1.34s-2.717-.452-3.474-1.34c-.757-.887-1.162-2.258-1.162-4.154 0-1.9.407-3.275 1.164-4.164.757-.89 1.88-1.344 3.472-1.344zM-1554.242 538.757q-.159-.225-.159-.462 0-.37.436-.74l3.22-2.77q.698-.62 1.939-.633h1.94q.54 0 .91.37.369.369.369.883v16.427q0 .514-.383.884-.382.356-.897.356h-2.454q-.514 0-.884-.343-.356-.356-.356-.871V539.1l-1.517 1.108q-.264.185-.607.119-.343-.066-.554-.304z" style="-inkscape-stroke:none" transform="matrix(.29384 0 0 .3234 498.2 -154.041)"/><path d="M-1548.81 533.814c-.883.01-1.621.24-2.16.72l-3.216 2.767c-.33.282-.552.616-.552.994 0 .233.083.46.22.656v.008l.01.008 1.01 1.274.01.008c.191.214.453.354.742.41.302.058.618 0 .866-.174v-.002l.984-.717v12.092c0 .42.16.814.455 1.11v.01c.303.281.697.433 1.115.433h2.453c.421 0 .817-.158 1.127-.447v-.004c.312-.301.485-.7.485-1.127v-16.426c0-.424-.165-.821-.467-1.123a1.61 1.61 0 0 0-1.15-.469h-1.942zm0 .676h1.939a.87.87 0 0 1 .672.27c.19.19.27.384.27.646v16.426a.818.818 0 0 1-.28.639.91.91 0 0 1-.662.263h-2.453a.89.89 0 0 1-.65-.252.817.817 0 0 1-.253-.625v-13.423l-2.048 1.498c-.104.073-.194.092-.35.062a.6.6 0 0 1-.363-.195l-.983-1.242a.446.446 0 0 1-.094-.262c0-.114.07-.272.317-.482l3.222-2.774v-.002c.392-.348.947-.538 1.715-.547zM-1543.437 536.645v-1.24q0-.514.383-.884t.897-.37h14.13q.515 0 .885.37.382.37.382.884v1.214q0 .924-.804 2.401l-6.927 12.812q-.673 1.24-1.728 1.24h-2.705q-.541 0-.752-.343-.211-.356 0-.766l7.626-14.077h-10.107q-.54 0-.91-.357-.37-.369-.37-.883z" style="-inkscape-stroke:none" transform="matrix(.29384 0 0 .3234 498.2 -154.041)"/><path d="M-1542.156 533.814c-.424 0-.824.166-1.133.465-.312.301-.484.7-.484 1.127v1.239c0 .423.165.82.466 1.123v.006c.306.294.71.449 1.145.449h9.539l-7.357 13.582v.004a1.13 1.13 0 0 0 .01 1.092v.006c.208.338.608.504 1.04.504h2.706c.836 0 1.541-.527 2.025-1.418l6.926-12.811c.55-1.011.845-1.849.845-2.562v-1.213a1.562 1.562 0 0 0-.482-1.123 1.573 1.573 0 0 0-1.119-.47zm0 .676h14.13c.263 0 .454.079.645.27v.004c.199.192.28.383.28.642v1.213c0 .518-.242 1.281-.764 2.24l-6.928 12.813c-.413.76-.859 1.062-1.43 1.062h-2.705c-.286 0-.388-.064-.46-.181-.085-.144-.092-.239.01-.432v-.002l7.894-14.57h-10.674a.895.895 0 0 1-.674-.26.843.843 0 0 1-.27-.644v-1.239c0-.259.083-.45.282-.642.2-.194.4-.274.662-.274z" style="-inkscape-stroke:none" transform="matrix(.29384 0 0 .3234 498.2 -154.041)"/></g><g color="#000" stroke-width="0" aria-label="AMA"><path d="M-1570.608 607.882h-4.623l-11.691-37.517h-25.364v8.52h2.708l-8.917 28.997h-4.492v8.653h21.005v-8.653h-5.152l1.387-4.491h13.54l1.388 4.491h-6.275v8.653h26.486zm-28.402-26.685 4.36 14.267h-8.653z" style="-inkscape-stroke:none" transform="matrix(.26405 0 0 .26522 445.35 -123.31)"/><path d="M-1570.608 607.882h-4.623l-11.691-37.517h-25.364v8.52h2.708l-8.917 28.997h-4.492v8.653h21.005v-8.653h-5.152l1.387-4.491h13.54l1.388 4.491h-6.275v8.653h26.486zm-28.402-26.685 4.36 14.267h-8.653z" style="-inkscape-stroke:none" transform="matrix(.26405 0 0 .26522 445.35 -123.31)"/><path d="M-1570.608 607.882h-4.623l-11.691-37.517h-25.364v8.52h2.708l-8.917 28.997h-4.492v8.653h21.005v-8.653h-5.152l1.387-4.491h13.54l1.388 4.491h-6.275v8.653h26.486zm-28.402-26.685 4.36 14.267h-8.653z" style="-inkscape-stroke:none" transform="matrix(.26405 0 0 .26522 445.35 -123.31)"/><path d="M-1570.608 607.882h-4.623l-11.691-37.517h-25.364v8.52h2.708l-8.917 28.997h-4.492v8.653h21.005v-8.653h-5.152l1.387-4.491h13.54l1.388 4.491h-6.275v8.653h26.486zm-28.402-26.685 4.36 14.267h-8.653zM-1521.862 581.99v3.897l.066 22.061h-3.765v8.587h20.873v-8.587h-3.633v-29.063h3.633v-8.52h-25.166l-6.341 24.703-6.671-24.703h-25.034v8.52h3.501v29.13h-3.567v8.52h17.9v-8.52h-3.765V581.99h.265c.198 3.302 1.056 7.067 1.387 8.19l7.397 26.355h13.805l6.936-25.694c.462-1.52 1.387-5.879 1.915-8.851z" style="-inkscape-stroke:none" transform="matrix(.26405 0 0 .26522 445.35 -123.31)"/><path d="M-1521.862 581.99v3.897l.066 22.061h-3.765v8.587h20.873v-8.587h-3.633v-29.063h3.633v-8.52h-25.166l-6.341 24.703-6.671-24.703h-25.034v8.52h3.501v29.13h-3.567v8.52h17.9v-8.52h-3.765V581.99h.265c.198 3.302 1.056 7.067 1.387 8.19l7.397 26.355h13.805l6.936-25.694c.462-1.52 1.387-5.879 1.915-8.851z" style="-inkscape-stroke:none" transform="matrix(.26405 0 0 .26522 445.35 -123.31)"/><path d="M-1521.862 581.99v3.897l.066 22.061h-3.765v8.587h20.873v-8.587h-3.633v-29.063h3.633v-8.52h-25.166l-6.341 24.703-6.671-24.703h-25.034v8.52h3.501v29.13h-3.567v8.52h17.9v-8.52h-3.765V581.99h.265c.198 3.302 1.056 7.067 1.387 8.19l7.397 26.355h13.805l6.936-25.694c.462-1.52 1.387-5.879 1.915-8.851z" style="-inkscape-stroke:none" transform="matrix(.26405 0 0 .26522 445.35 -123.31)"/><path d="M-1521.862 581.99v3.897l.066 22.061h-3.765v8.587h20.873v-8.587h-3.633v-29.063h3.633v-8.52h-25.166l-6.341 24.703-6.671-24.703h-25.034v8.52h3.501v29.13h-3.567v8.52h17.9v-8.52h-3.765V581.99h.265c.198 3.302 1.056 7.067 1.387 8.19l7.397 26.355h13.805l6.936-25.694c.462-1.52 1.387-5.879 1.915-8.851zM-1449.668 607.882h-4.623l-11.691-37.517h-25.364v8.52h2.708l-8.917 28.997h-4.491v8.653h21.004v-8.653h-5.152l1.387-4.491h13.54l1.388 4.491h-6.275v8.653h26.486zm-28.402-26.685 4.36 14.267h-8.653z" style="-inkscape-stroke:none" transform="matrix(.26405 0 0 .26522 445.35 -123.31)"/><path d="M-1449.668 607.882h-4.623l-11.691-37.517h-25.364v8.52h2.708l-8.917 28.997h-4.491v8.653h21.004v-8.653h-5.152l1.387-4.491h13.54l1.388 4.491h-6.275v8.653h26.486zm-28.402-26.685 4.36 14.267h-8.653z" style="-inkscape-stroke:none" transform="matrix(.26405 0 0 .26522 445.35 -123.31)"/><path d="M-1449.668 607.882h-4.623l-11.691-37.517h-25.364v8.52h2.708l-8.917 28.997h-4.491v8.653h21.004v-8.653h-5.152l1.387-4.491h13.54l1.388 4.491h-6.275v8.653h26.486zm-28.402-26.685 4.36 14.267h-8.653z" style="-inkscape-stroke:none" transform="matrix(.26405 0 0 .26522 445.35 -123.31)"/><path d="M-1449.668 607.882h-4.623l-11.691-37.517h-25.364v8.52h2.708l-8.917 28.997h-4.491v8.653h21.004v-8.653h-5.152l1.387-4.491h13.54l1.388 4.491h-6.275v8.653h26.486zm-28.402-26.685 4.36 14.267h-8.653z" style="-inkscape-stroke:none" transform="matrix(.26405 0 0 .26522 445.35 -123.31)"/></g><g color="#000"><path d="M-1647.732 525.267c-.686-.014-1.182.025-1.182.025l-.188.013v1.535l-1.245.004v1.754l-1.008-.005v14.37l11.841-.016a.204.199 0 0 0 .022-.004.204.199 0 0 0 0 .004l11.841.015v-14.369l-1.007.005v-1.754l-1.246-.004v-1.535l-.188-.013s-1.985-.155-3.505.265c-3.726 1.03-5.574 2.493-5.907 2.773-.333-.28-2.181-1.743-5.907-2.773-.76-.21-1.637-.277-2.323-.29zm0 .402c.666.014 1.507.077 2.208.27 3.856 1.067 5.652 2.597 5.815 2.74l-.015 12.603c-.088-.05-.095-.058-.216-.123-.297-.16-.651-.337-.943-.416-1.326-.358-3.326-.499-5.007-.557-1.566-.054-2.662-.03-2.831-.027l.02-13.12v-1.353c.127-.007.411-.029.968-.017zm16.452 0c.558-.012.841.009.968.016l.023 14.473c-.17-.003-1.266-.027-2.831.027-1.681.059-3.681.2-5.007.558-.292.079-.647.257-.943.416-.121.065-.128.073-.216.124l-.015-12.604c.164-.145 1.96-1.674 5.814-2.74.701-.193 1.542-.256 2.208-.27zm-17.829 1.57-.02 13.32.207-.004s1.348-.029 3.017.029 3.663.206 4.913.544c.216.058.57.227.854.38.075.04.071.04.135.076l-9.935-.122-.01-12.662v-1.559zm19.207 0 .837.001v1.56l-.01 12.661-9.934.123c.063-.036.06-.036.134-.077.285-.153.639-.322.855-.38 1.25-.338 3.244-.486 4.912-.544 1.67-.058 3.016-.029 3.016-.029l.209.004zm-17.615.581a.204.199 0 0 0-.219.183.204.199 0 0 0 .188.214s1.661.135 2.372.372c2.667.887 4.242 2.055 4.242 2.055a.204.199 0 0 0 .285-.038.204.199 0 0 0-.039-.28s-1.632-1.207-4.356-2.114c-.84-.28-2.472-.392-2.472-.392zm16.023 0s-1.633.112-2.472.392c-2.725.907-4.357 2.114-4.357 2.114a.204.199 0 0 0-.039.28.204.199 0 0 0 .285.038s1.575-1.168 4.242-2.055c.71-.237 2.372-.372 2.372-.372a.204.199 0 0 0 .188-.214.204.199 0 0 0-.219-.183zm-19.458 1.173.6.004.01 12.858 10.652.131v.002-.002l.168.002a.204.199 0 0 0 .01-.009.204.199 0 0 0 .023.01l.17-.003v.002-.002l10.65-.131.01-12.858.6-.004v13.57l-11.432-.015a.204.199 0 0 0-.019.008.204.199 0 0 0-.01-.008l-11.433.015zm3.444.996a.204.199 0 0 0-.227.173.204.199 0 0 0 .178.222s2.003.249 3.196.748c1.367.571 3.365 1.598 3.365 1.598a.204.199 0 0 0 .276-.083.204.199 0 0 0-.085-.27s-1.998-1.027-3.395-1.612c-1.297-.542-3.307-.776-3.307-.776zm16.004 0s-2.01.234-3.306.776c-1.397.585-3.395 1.613-3.395 1.613a.204.199 0 0 0-.085.269.204.199 0 0 0 .275.083s1.998-1.027 3.365-1.598c1.193-.5 3.197-.748 3.197-.748a.204.199 0 0 0 .177-.222.204.199 0 0 0-.227-.173zm-15.999 2.51a.204.199 0 0 0-.21.191.204.199 0 0 0 .196.207s1.751.068 2.54.254c1.334.315 3.956 1.508 3.956 1.508a.204.199 0 0 0 .271-.096.204.199 0 0 0-.098-.265s-2.593-1.194-4.035-1.535c-.894-.21-2.62-.264-2.62-.264zm15.995 0s-1.727.053-2.62.265c-1.442.34-4.035 1.534-4.035 1.534a.204.199 0 0 0-.098.265.204.199 0 0 0 .27.096s2.623-1.193 3.958-1.508c.788-.186 2.54-.254 2.54-.254a.204.199 0 0 0 .196-.207.204.199 0 0 0-.21-.191zm-.011 2.302s-1.924.169-2.899.313c-.38.057-1.267.285-2.086.5s-1.55.42-1.55.42a.204.199 0 0 0-.14.245.204.199 0 0 0 .251.137s.73-.202 1.546-.417c.816-.216 1.734-.445 2.04-.49.942-.14 2.875-.312 2.875-.312a.204.199 0 0 0 .184-.216.204.199 0 0 0-.221-.18zm-15.971.11a.204.199 0 0 0-.212.19.204.199 0 0 0 .194.207s1.947.084 2.876.222c.658.098 2.013.446 2.013.446a.204.199 0 0 0 .249-.141.204.199 0 0 0-.145-.244s-1.34-.348-2.056-.454c-.987-.147-2.92-.227-2.92-.227zm.012 1.946a.204.199 0 0 0-.214.19.204.199 0 0 0 .194.208s2.886.137 4.254.4c.747.145 2.275.673 2.275.673a.204.199 0 0 0 .26-.121.204.199 0 0 0-.124-.255s-1.506-.528-2.331-.687c-1.448-.279-4.314-.408-4.314-.408zm16.125.11s-3.034.017-4.494.298c-.826.16-2.332.687-2.332.687a.204.199 0 0 0-.123.255.204.199 0 0 0 .26.12s1.527-.527 2.274-.671c1.355-.262 4.417-.29 4.417-.29a.204.199 0 0 0 .203-.201.204.199 0 0 0-.205-.198z" style="-inkscape-stroke:none" transform="matrix(1.00029 0 0 1.00007 1679.666 -482.341)"/><path d="M-1647.732 525.15c-.689-.013-1.19.026-1.19.026l-.295.021v1.528l-1.246.004v1.754l-1.008-.006v14.601l11.864-.016h.101l11.97.016v-14.601l-1.007.006v-1.754l-1.246-.004v-1.528l-.293-.021s-1.992-.16-3.543.27c-3.662 1.012-5.477 2.414-5.877 2.745-.4-.331-2.215-1.733-5.877-2.746-.775-.214-1.656-.28-2.348-.295zm0 .233c.68.014 1.548.08 2.29.285 3.71 1.025 5.54 2.478 5.864 2.75l.074.062.074-.062c.323-.272 2.155-1.725 5.863-2.75 1.489-.412 3.465-.262 3.465-.262l.082.006v1.543l1.246.004v1.756l1.008-.006v14.137l-11.61-.016v-.035l-.144.035-11.719.016v-14.137l1.008.006v-1.756l1.244-.004v-1.543l.082-.006s.49-.037 1.168-.023zm-.01.17c-.548-.011-.844.01-.965.017l-.11.006v1.463l-.022 13.239.12-.002c.17-.003 1.26-.03 2.824.025 1.678.058 3.675.202 4.98.555.273.073.626.248.92.406.12.064.123.069.213.12l.172.1.016-12.79.012-.055-.012-.01v-.063h-.08c-.214-.186-1.995-1.679-5.818-2.736-.719-.199-1.566-.26-2.237-.275h-.012zm16.46 0c-.67.014-1.517.077-2.236.275-3.873 1.07-5.685 2.61-5.86 2.764l-.038.035.014 12.855.174-.1c.09-.051.093-.058.212-.122.294-.158.646-.33.918-.405 1.305-.352 3.305-.496 4.983-.554 1.562-.054 2.653-.03 2.824-.028l.117.002-.024-14.699-.107-.006c-.124-.007-.416-.03-.977-.017zm-16.455.232c.66.014 1.495.076 2.18.266 3.788 1.047 5.538 2.521 5.73 2.69l-.015 12.341-.045-.025c-.299-.16-.657-.342-.969-.426-1.347-.364-3.349-.502-5.033-.56-1.504-.053-2.485-.03-2.719-.026l.021-13.006v-1.24c.146-.01.358-.024.848-.014zm16.46 0c.49-.01.704.005.85.014l.022 14.246c-.233-.004-1.217-.027-2.72.025-1.685.059-3.685.197-5.032.56-.312.085-.67.266-.969.427l-.045.025-.016-12.342c.194-.169 1.942-1.642 5.729-2.69.685-.189 1.52-.25 2.18-.265zm-17.833 1.338-.953.002v1.676l.01 12.775 10.05.123.058-.215c-.062-.034-.06-.036-.137-.078-.289-.155-.64-.326-.88-.39-1.272-.343-3.266-.49-4.938-.547-1.672-.058-3.023-.03-3.023-.03l-.09.003.022-13.319zm19.092 0v.115l.02 13.203-.092-.002s-1.35-.03-3.021.028c-1.673.058-3.669.206-4.94.549-.24.064-.59.235-.879.39-.076.041-.076.042-.136.076l.059.217 10.048-.123.01-12.777v-1.674zm-19.207.23-.022 13.323.326-.006s1.347-.029 3.012.03c1.665.057 3.657.209 4.885.54.116.031.318.137.5.223l-9.299-.115-.01-12.55v-1.443zm19.438 0 .605.003v1.443l-.01 12.549-9.3.115c.183-.087.385-.193.501-.225 1.228-.331 3.222-.481 4.887-.539s3.01-.029 3.01-.029l.326.006zm-17.721.352a.32.32 0 0 0-.344.29.319.319 0 0 0 .295.337s.413.035.914.098c.502.063 1.094.158 1.43.27 2.651.882 4.209 2.036 4.209 2.036.14.104.34.077.447-.06a.314.314 0 0 0-.062-.442s-1.648-1.22-4.389-2.132c-.873-.291-2.5-.397-2.5-.397zm16.006 0s-1.627.106-2.5.397c-2.74.912-4.389 2.132-4.389 2.132a.312.312 0 0 0-.062.442.323.323 0 0 0 .445.06s1.558-1.154 4.21-2.037c.335-.112.93-.206 1.431-.27.502-.062.914-.097.914-.097a.317.317 0 0 0 .293-.338.319.319 0 0 0-.342-.289zm-16.024.23h.01c.01 0 1.635.12 2.44.387 2.708.902 4.324 2.098 4.324 2.098.04.03.045.077.016.115a.09.09 0 0 1-.125.016s-1.592-1.18-4.275-2.073c-.375-.124-.966-.215-1.473-.279-.507-.064-.926-.098-.926-.098-.05-.004-.086-.044-.082-.09 0-.045.044-.08.096-.076zm16.034 0h.01c.05-.003.09.031.094.077 0 .046-.03.086-.08.09 0 0-.417.033-.924.097-.507.064-1.1.155-1.475.28-2.683.893-4.273 2.072-4.273 2.072a.09.09 0 0 1-.125-.016c-.03-.038-.024-.086.016-.115 0 0 1.616-1.196 4.324-2.098.804-.267 2.43-.386 2.437-.386zm-19.577.942v13.803l11.506-.016.035.03.061-.03 11.524.014v-13.801l-.83.004-.01 12.86-10.422.128-.23.002v.002h-.034l-.066-.03-.03.03h-.01v-.002l-.231-.002-10.422-.129-.01-12.859zm.233.23.369.004.01 12.858 10.652.13v-.11h.229l-.115.113.185.002h.025l.162-.002-.115-.114h.228v.112l10.653-.131.01-12.858.37-.004v13.34l-11.31-.015h-.029l-11.326.015zm3.336.766.01.002a.32.32 0 0 0-.356.273.317.317 0 0 0 .28.35s2.002.254 3.164.74c1.358.569 3.357 1.594 3.357 1.594.154.08.347.022.43-.13a.315.315 0 0 0-.133-.427s-1.999-1.029-3.404-1.617c-1.325-.554-3.338-.785-3.338-.785zm15.982 0s-2.013.231-3.338.785c-1.405.588-3.402 1.617-3.402 1.617a.315.315 0 0 0-.135.426c.082.153.275.21.43.131 0 0 1.999-1.025 3.357-1.594 1.163-.486 3.166-.74 3.166-.74a.317.317 0 0 0 .28-.35.321.321 0 0 0-.358-.273l.01-.002zm-16.004.23.01.003c.01 0 2.005.238 3.27.767 1.388.58 3.383 1.607 3.385 1.608.045.023.06.07.037.11a.09.09 0 0 1-.121.036s-1.998-1.026-3.373-1.602c-1.223-.511-3.227-.755-3.227-.755a.083.083 0 0 1-.076-.094c.01-.046.047-.079.098-.072zm16.032 0c.05-.005.092.027.098.073.01.046-.025.087-.076.094 0 0-2.006.244-3.229.755-1.376.576-3.373 1.602-3.373 1.602a.088.088 0 0 1-.12-.035c-.021-.042-.01-.088.038-.111 0 0 1.998-1.027 3.387-1.608 1.265-.53 3.258-.766 3.267-.767zm-16.01 2.28v.002a.32.32 0 0 0-.33.3c-.01.175.135.32.308.327 0 0 1.761.073 2.518.252 1.305.308 3.935 1.5 3.935 1.5a.323.323 0 0 0 .424-.15.319.319 0 0 0-.154-.42s-2.587-1.196-4.057-1.544c-.921-.217-2.64-.267-2.642-.267zm15.988 0 .031.004-.016-.004zm0 0s-1.722.05-2.645.267c-1.47.348-4.054 1.543-4.054 1.543a.315.315 0 0 0-.154.42.322.322 0 0 0 .423.15s2.631-1.191 3.936-1.5c.757-.178 2.518-.251 2.518-.251a.318.318 0 0 0 .306-.326.321.321 0 0 0-.33-.303zm-15.994.232s1.73.058 2.596.262c1.412.334 4.013 1.525 4.013 1.525v.002c.046.021.063.067.043.11-.02.042-.073.06-.119.039 0 0-2.613-1.191-3.978-1.514-.82-.193-2.563-.258-2.563-.258-.052-.002-.086-.04-.084-.086 0-.045.04-.082.092-.08zm16.002 0c.05-.002.09.035.092.08a.085.085 0 0 1-.086.086s-1.742.065-2.56.258c-1.366.323-3.98 1.514-3.98 1.514a.087.087 0 0 1-.116-.04c-.02-.042 0-.088.04-.109v-.002s2.602-1.191 4.014-1.525c.866-.205 2.598-.262 2.598-.262zm-.025 2.07s-1.923.169-2.906.315c-.4.06-1.279.286-2.098.502-.82.216-1.55.42-1.55.42a.317.317 0 0 0-.222.39.32.32 0 0 0 .393.215s.73-.2 1.545-.416c.814-.215 1.743-.446 2.027-.488.933-.139 2.867-.31 2.867-.31a.318.318 0 0 0 .29-.342.319.319 0 0 0-.346-.285zm-15.957.11a.319.319 0 0 0-.332.3c-.01.174.133.322.306.329 0 0 1.951.085 2.864.22.641.096 2 .444 2 .444a.321.321 0 0 0 .39-.223.318.318 0 0 0-.228-.386s-1.335-.349-2.067-.458c-1.002-.149-2.933-.226-2.933-.226zm15.976.121a.088.088 0 0 1 .098.076c0 .046-.029.085-.08.09 0 0-1.93.171-2.88.313-.33.049-1.237.276-2.053.492-.817.215-1.549.418-1.549.418a.087.087 0 0 1-.11-.057v-.002c-.012-.044.012-.088.062-.101 0 0 .73-.203 1.548-.418.818-.216 1.713-.445 2.075-.498.965-.144 2.89-.313 2.89-.313zm-15.984.11s1.935.082 2.906.226c.7.104 2.043.451 2.043.451a.081.081 0 0 1 .061.102c-.012.044-.058.071-.107.058 0 0-1.35-.347-2.026-.447-.945-.14-2.886-.225-2.886-.225-.051-.002-.086-.04-.084-.085 0-.046.04-.083.092-.08zm.021 1.716a.319.319 0 0 0-.334.299c-.01.174.13.32.303.328 0 0 2.892.14 4.238.4.724.14 2.258.669 2.258.669a.323.323 0 0 0 .408-.192.315.315 0 0 0-.195-.402s-1.501-.528-2.348-.692c-1.468-.283-4.33-.41-4.33-.41zm16.12.11s-3.027.013-4.516.3c-.847.164-2.348.692-2.348.692a.316.316 0 0 0-.195.402.323.323 0 0 0 .408.192s1.533-.529 2.258-.668c1.325-.256 4.396-.29 4.396-.29a.317.317 0 0 0 .317-.316.317.317 0 0 0-.32-.312zm-16.132.12s2.873.132 4.3.407c.804.155 2.314.683 2.314.683.048.017.069.062.053.106a.088.088 0 0 1-.114.05s-1.519-.529-2.289-.677c-1.39-.268-4.271-.402-4.271-.402-.051-.002-.086-.04-.084-.086 0-.046.04-.083.092-.08zm16.131.11c.052 0 .09.038.09.084 0 .046-.036.084-.088.084 0 0-3.054.024-4.44.291-.769.148-2.288.678-2.288.678a.088.088 0 0 1-.114-.051v-.002c-.016-.044 0-.087.053-.104 0 0 1.51-.528 2.315-.683 1.432-.276 4.473-.297 4.473-.297z" style="-inkscape-stroke:none" transform="matrix(1.00029 0 0 1.00007 1679.666 -482.341)"/></g></g></svg>